<?xml version="1.0" encoding="UTF-8"?>
<svg id="logosandtypes_com" data-name="logosandtypes com" xmlns="http://www.w3.org/2000/svg" viewBox="0 0 150 150">
  <defs>
    <style>
      .cls-1 {
        fill: #5b40a5;
      }

      .cls-2 {
        fill: none;
      }
    </style>
  </defs>
  <path class="cls-2" d="M0,0H150V150H0V0Z"/>
  <path class="cls-1" d="M62.23,128.93H11.39c-4.38,0-5.7-1.75-4.38-6.14,.44-1.31,1.31-1.31,2.19-1.75h3.51c5.26,0,8.33-2.63,8.33-7.89v-29.8c0-3.07-1.31-4.38-4.38-3.94h-7.01c-2.63,0-2.63-1.31-2.63-3.51,0-1.75-.44-3.94,2.19-3.94h7.01c3.07,0,4.82-1.31,4.82-4.38v-31.55c0-4.82-.88-5.26-5.7-6.14-1.31-.44-3.07-.44-4.38-.44-3.07,0-3.94-1.31-3.94-3.94,0-3.07,1.75-3.07,3.94-3.07H110.87c9.64,0,17.97,3.07,24.54,10.08,10.96,12.27,9.2,29.8-3.94,40.32q-3.51,2.63,0,5.26c9.64,7.89,13.59,18.84,10.08,30.24-3.07,10.96-14.02,19.72-25.42,20.16-16.65,1.31-32.87,.44-49.52,.44-1.75,0-3.07,0-4.38,0Zm11.83-7.45h34.18c3.51,0,7.01,0,10.08-.88,11.83-3.07,21.91-17.09,13.15-30.68-4.82-7.89-12.71-10.52-21.47-10.52H32.43c-3.94,0-4.82,.88-4.82,4.82v29.8c0,5.7,2.19,7.45,7.45,7.45h39Zm2.19-49.52c11.39-.44,24.98,.44,38.57-.44,9.2-.88,17.53-7.01,19.72-15.78,2.19-7.89-1.31-16.22-8.77-21.47-5.26-3.51-11.39-4.38-17.09-4.38H34.18c-5.26,0-6.14,.88-6.14,6.14v29.8c0,5.7,.44,6.14,6.14,6.14,13.15,0,26.3,0,42.07,0Z"/>
</svg>